<?xml version="1.0" encoding="utf-8"?>
<!-- Generator: Adobe Illustrator 27.2.0, SVG Export Plug-In . SVG Version: 6.00 Build 0)  -->
<svg version="1.1" id="Слой_1" xmlns="http://www.w3.org/2000/svg" xmlns:xlink="http://www.w3.org/1999/xlink" x="0px" y="0px"
	 viewBox="0 0 549 231" style="enable-background:new 0 0 549 231;" xml:space="preserve">
<style type="text/css">
	.st0{fill-rule:evenodd;clip-rule:evenodd;fill:url(#SVGID_1_);}
	.st1{fill:url(#SVGID_00000182529634309526064280000005080090235501255870_);}
	.st2{fill:#FFFFFF;}
	.st3{fill:url(#SVGID_00000006698149479695270580000012657809970783432098_);}
</style>
<g>
	<linearGradient id="SVGID_1_" gradientUnits="userSpaceOnUse" x1="273.7734" y1="187.7927" x2="352.1873" y2="187.7927">
		<stop  offset="5.327789e-09" style="stop-color:#AECBFA"/>
		<stop  offset="0.9078" style="stop-color:#FAD9BD"/>
		<stop  offset="1" style="stop-color:#FFDDB7"/>
	</linearGradient>
	<path class="st0" d="M309.84,211.71c2.09,4.77,3.14,9.87,3.14,15.29c0-5.42,1.01-10.52,3.04-15.29c2.09-4.77,4.9-8.92,8.43-12.45
		c3.53-3.53,7.68-6.31,12.45-8.33c4.77-2.09,9.87-3.14,15.29-3.14c-5.42,0-10.52-1.01-15.29-3.04c-4.77-2.09-8.92-4.9-12.45-8.43
		c-3.53-3.53-6.34-7.68-8.43-12.45c-2.03-4.77-3.04-9.87-3.04-15.29c0,5.42-1.05,10.52-3.14,15.29c-2.02,4.77-4.8,8.92-8.33,12.45
		c-3.53,3.53-7.68,6.34-12.45,8.43c-4.77,2.03-9.87,3.04-15.29,3.04c5.42,0,10.52,1.05,15.29,3.14c4.77,2.03,8.92,4.8,12.45,8.33
		C305.04,202.79,307.82,206.94,309.84,211.71z"/>
	
		<linearGradient id="SVGID_00000111903652992627960980000000847234936436182154_" gradientUnits="userSpaceOnUse" x1="364.6569" y1="187.5275" x2="543.4102" y2="187.5275">
		<stop  offset="5.327789e-09" style="stop-color:#AECBFA"/>
		<stop  offset="0.9078" style="stop-color:#FAD9BD"/>
		<stop  offset="1" style="stop-color:#FFDDB7"/>
	</linearGradient>
	<path style="fill:url(#SVGID_00000111903652992627960980000000847234936436182154_);" d="M378.25,208.24
		c2.71,1.12,5.61,1.68,8.68,1.68c3.11,0,5.95-0.5,8.5-1.5c2.55-1,4.77-2.41,6.65-4.25c1.88-1.84,3.33-4.01,4.37-6.53
		c1.04-2.55,1.56-5.35,1.56-8.38v-0.06c0-0.56-0.04-1.08-0.12-1.56c-0.04-0.48-0.1-0.98-0.18-1.5h-20.65v4.97h15.57
		c-0.16,2.39-0.72,4.47-1.68,6.23c-0.92,1.72-2.1,3.13-3.53,4.25c-1.4,1.12-3.01,1.96-4.85,2.51c-1.8,0.52-3.67,0.78-5.63,0.78
		c-2.16,0-4.25-0.4-6.29-1.2c-2.04-0.8-3.85-1.96-5.45-3.47c-1.56-1.52-2.79-3.33-3.71-5.45c-0.92-2.16-1.38-4.57-1.38-7.24
		c0-2.67,0.44-5.07,1.32-7.18c0.92-2.16,2.16-3.97,3.71-5.45c1.56-1.52,3.35-2.67,5.39-3.47c2.08-0.8,4.21-1.2,6.41-1.2
		c1.64,0,3.19,0.22,4.67,0.66c1.48,0.4,2.83,0.98,4.07,1.74c1.28,0.76,2.37,1.68,3.29,2.75l3.71-3.83c-1.8-2.04-4.09-3.61-6.88-4.73
		c-2.75-1.12-5.71-1.68-8.86-1.68c-3.03,0-5.91,0.56-8.62,1.68c-2.67,1.12-5.05,2.69-7.12,4.73c-2.04,2.04-3.63,4.41-4.79,7.12
		c-1.16,2.71-1.74,5.67-1.74,8.86c0,3.19,0.58,6.15,1.74,8.86c1.16,2.71,2.75,5.09,4.79,7.12
		C373.22,205.55,375.57,207.12,378.25,208.24z M439.08,185.01c-1.16-2.35-2.83-4.19-5.03-5.5c-2.2-1.36-4.81-2.04-7.84-2.04
		c-3,0-5.61,0.76-7.84,2.28c-2.24,1.48-3.98,3.46-5.21,5.93c-1.19,2.48-1.79,5.17-1.79,8.08c0,3.12,0.64,5.89,1.92,8.32
		c1.31,2.43,3.13,4.35,5.44,5.75c2.31,1.39,4.95,2.09,7.91,2.09c3.35,0,6.16-0.76,8.44-2.28c2.27-1.51,4.01-3.43,5.21-5.74
		l-4.55-2.16c-0.84,1.52-2,2.8-3.47,3.83c-1.43,1.04-3.23,1.55-5.38,1.55c-1.68,0-3.29-0.42-4.85-1.25
		c-1.56-0.84-2.83-2.1-3.83-3.77c-0.86-1.45-1.35-3.23-1.47-5.33h24.04c0.04-0.2,0.06-0.46,0.06-0.78c0.04-0.32,0.07-0.62,0.07-0.9
		C440.88,190.06,440.28,187.37,439.08,185.01z M417.03,190.4c0.19-0.89,0.45-1.73,0.8-2.51c0.76-1.72,1.85-3.07,3.29-4.07
		c1.48-1.04,3.19-1.56,5.15-1.56c1.64,0,3.01,0.28,4.13,0.84c1.12,0.52,2.03,1.2,2.75,2.04c0.72,0.84,1.24,1.74,1.56,2.69
		c0.32,0.92,0.5,1.77,0.54,2.57H417.03z M445.46,178.43v30.53h5.39v-17c0-1.68,0.34-3.25,1.02-4.73c0.68-1.48,1.62-2.65,2.81-3.53
		c1.2-0.92,2.55-1.38,4.07-1.38c2.12,0,3.75,0.62,4.91,1.86c1.2,1.2,1.8,3.25,1.8,6.17v18.62h5.33v-17.12
		c0-1.68,0.34-3.23,1.02-4.67c0.68-1.48,1.62-2.65,2.81-3.53c1.2-0.88,2.55-1.32,4.07-1.32c2.16,0,3.81,0.6,4.97,1.8
		c1.2,1.2,1.8,3.25,1.8,6.17v18.68h5.33v-19.58c0-3.55-0.88-6.43-2.63-8.62c-1.72-2.2-4.41-3.29-8.08-3.29
		c-2.43,0-4.53,0.56-6.29,1.68c-1.76,1.12-3.15,2.53-4.19,4.25c-0.72-1.76-1.9-3.17-3.53-4.25c-1.6-1.12-3.53-1.68-5.81-1.68
		c-1.28,0-2.55,0.26-3.83,0.78c-1.24,0.48-2.33,1.14-3.29,1.98c-0.96,0.8-1.72,1.7-2.27,2.69h-0.24v-4.49H445.46z M495.63,178.43
		v30.53h5.33v-30.53H495.63z M495.57,171.96c0.76,0.72,1.66,1.08,2.69,1.08c1.08,0,1.98-0.36,2.69-1.08
		c0.72-0.76,1.08-1.66,1.08-2.69c0-1.08-0.36-1.98-1.08-2.69c-0.72-0.76-1.62-1.14-2.69-1.14c-1.04,0-1.94,0.38-2.69,1.14
		c-0.72,0.72-1.08,1.62-1.08,2.69C494.49,170.31,494.85,171.2,495.57,171.96z M505.96,178.43v30.53h5.39v-17
		c0-1.64,0.34-3.17,1.02-4.61c0.72-1.48,1.7-2.67,2.93-3.59c1.24-0.96,2.69-1.44,4.37-1.44c2.23,0,4.03,0.62,5.39,1.86
		c1.36,1.2,2.04,3.25,2.04,6.17v18.62h5.39v-19.58c0-3.59-0.96-6.47-2.87-8.62c-1.92-2.2-4.73-3.29-8.44-3.29
		c-2.19,0-4.19,0.54-5.99,1.62c-1.8,1.08-3.09,2.35-3.89,3.83h-0.24v-4.49H505.96z M537,178.43v30.53h5.33v-30.53H537z
		 M536.94,171.96c0.76,0.72,1.66,1.08,2.69,1.08c1.08,0,1.98-0.36,2.69-1.08c0.72-0.76,1.08-1.66,1.08-2.69
		c0-1.08-0.36-1.98-1.08-2.69c-0.72-0.76-1.62-1.14-2.69-1.14c-1.04,0-1.94,0.38-2.69,1.14c-0.72,0.72-1.08,1.62-1.08,2.69
		C535.87,170.31,536.23,171.2,536.94,171.96z"/>
	<path class="st2" d="M224.31,64.43H215l20.91-58.1h10.13l20.91,58.1h-9.31l-16.43-47.55h-0.45L224.31,64.43z M225.87,41.68h30.19
		v7.38h-30.19V41.68z"/>
	<path class="st2" d="M284.08,6.33v58.1h-8.77V6.33H284.08z"/>
	<path class="st2" d="M329.39,64.43l-16.11-58.1h9.22l11.32,45h0.54l11.77-45h9.14l11.77,45.02h0.54l11.29-45.02h9.25l-16.14,58.1
		h-8.82l-12.23-43.52h-0.45l-12.23,43.52H329.39z"/>
	<path class="st2" d="M392.74,64.43V20.85h8.2v6.92h0.45c0.79-2.34,2.2-4.19,4.21-5.55c2.01-1.35,4.3-2.03,6.85-2.03
		c0.53,0,1.16,0.02,1.89,0.06c0.73,0.04,1.3,0.09,1.72,0.14v8.11c-0.34-0.09-0.95-0.2-1.82-0.33c-0.87-0.12-1.74-0.18-2.61-0.18
		c-2.01,0-3.79,0.42-5.35,1.26c-1.56,0.84-2.79,2.01-3.7,3.49c-0.91,1.49-1.36,3.17-1.36,5.06v26.61H392.74z"/>
	<path class="st2" d="M427.72,14.13c-1.47,0-2.74-0.5-3.79-1.49c-1.05-0.99-1.57-2.18-1.57-3.56c0-1.4,0.52-2.6,1.57-3.59
		C424.99,4.5,426.25,4,427.72,4s2.74,0.5,3.79,1.49c1.05,0.99,1.57,2.19,1.57,3.59c0,1.38-0.52,2.57-1.57,3.56
		C430.46,13.63,429.2,14.13,427.72,14.13z M423.44,64.43V20.85h8.48v43.58H423.44z"/>
	<path class="st2" d="M463.67,20.85v6.81h-23.8v-6.81H463.67z M446.25,10.41h8.48v41.22c0,1.65,0.24,2.88,0.74,3.7
		c0.49,0.82,1.13,1.38,1.92,1.67c0.78,0.29,1.64,0.44,2.57,0.44c0.68,0,1.28-0.05,1.79-0.14c0.51-0.09,0.91-0.17,1.19-0.23
		l1.53,7.01c-0.49,0.19-1.19,0.38-2.1,0.58c-0.91,0.2-2.04,0.31-3.4,0.33c-2.23,0.04-4.31-0.36-6.24-1.19
		c-1.93-0.83-3.49-2.12-4.68-3.86c-1.19-1.74-1.79-3.92-1.79-6.55V10.41z"/>
	<path class="st2" d="M491.36,65.31c-4.29,0-7.99-0.92-11.08-2.77c-3.09-1.84-5.48-4.44-7.15-7.8c-1.67-3.36-2.51-7.3-2.51-11.82
		c0-4.46,0.84-8.4,2.51-11.8c1.67-3.4,4.02-6.06,7.04-7.97c3.02-1.91,6.55-2.87,10.6-2.87c2.46,0,4.84,0.41,7.15,1.22
		c2.31,0.81,4.38,2.09,6.21,3.83c1.83,1.74,3.28,4,4.34,6.77c1.06,2.77,1.59,6.13,1.59,10.09v3.01h-34.64v-6.35h26.33
		c0-2.23-0.45-4.21-1.36-5.94c-0.91-1.73-2.18-3.1-3.82-4.1c-1.64-1-3.55-1.5-5.75-1.5c-2.38,0-4.46,0.58-6.23,1.74
		c-1.77,1.16-3.13,2.68-4.09,4.54c-0.95,1.86-1.43,3.88-1.43,6.06v4.97c0,2.91,0.52,5.39,1.55,7.43c1.03,2.04,2.47,3.6,4.33,4.67
		c1.85,1.07,4.02,1.6,6.5,1.6c1.61,0,3.07-0.23,4.4-0.69c1.32-0.46,2.47-1.16,3.43-2.09c0.96-0.93,1.7-2.07,2.21-3.43l8.03,1.45
		c-0.64,2.36-1.79,4.43-3.45,6.2c-1.65,1.77-3.73,3.14-6.21,4.11C497.37,64.82,494.54,65.31,491.36,65.31z"/>
	<path class="st2" d="M519.5,64.43V20.85h8.2v6.92h0.45c0.79-2.34,2.2-4.19,4.21-5.55c2.01-1.35,4.3-2.03,6.85-2.03
		c0.53,0,1.16,0.02,1.89,0.06c0.73,0.04,1.3,0.09,1.72,0.14v8.11c-0.34-0.09-0.95-0.2-1.82-0.33c-0.87-0.12-1.74-0.18-2.61-0.18
		c-2.01,0-3.79,0.42-5.35,1.26c-1.56,0.84-2.79,2.01-3.7,3.49c-0.91,1.49-1.36,3.17-1.36,5.06v26.61H519.5z"/>
	<path class="st2" d="M201,131.01h-9.31l20.91-58.1h10.13l20.91,58.1h-9.31l-16.43-47.55h-0.45L201,131.01z M202.57,108.25h30.19
		v7.38h-30.19V108.25z"/>
	<path class="st2" d="M283.65,98.07l-7.69,1.36c-0.32-0.98-0.83-1.92-1.52-2.81c-0.69-0.89-1.62-1.62-2.79-2.18
		c-1.17-0.57-2.64-0.85-4.4-0.85c-2.4,0-4.41,0.53-6.02,1.6c-1.61,1.07-2.41,2.44-2.41,4.13c0,1.46,0.54,2.63,1.62,3.52
		c1.08,0.89,2.82,1.62,5.22,2.18l6.92,1.59c4.01,0.93,7,2.35,8.96,4.28c1.97,1.93,2.95,4.44,2.95,7.52c0,2.61-0.75,4.93-2.26,6.96
		c-1.5,2.03-3.59,3.63-6.27,4.78c-2.68,1.15-5.77,1.73-9.29,1.73c-4.88,0-8.86-1.04-11.94-3.13c-3.08-2.09-4.97-5.06-5.67-8.92
		l8.2-1.25c0.51,2.14,1.56,3.75,3.15,4.84c1.59,1.09,3.66,1.63,6.21,1.63c2.78,0,5-0.58,6.67-1.75s2.5-2.59,2.5-4.27
		c0-1.36-0.51-2.51-1.52-3.43c-1.01-0.93-2.56-1.63-4.64-2.1l-7.38-1.62c-4.07-0.93-7.07-2.4-9.01-4.43
		c-1.94-2.02-2.91-4.59-2.91-7.69c0-2.57,0.72-4.82,2.16-6.75s3.42-3.44,5.96-4.53c2.53-1.09,5.44-1.63,8.71-1.63
		c4.71,0,8.42,1.02,11.12,3.05C280.99,91.95,282.78,94.66,283.65,98.07z"/>
	<path class="st2" d="M326.46,98.07l-7.69,1.36c-0.32-0.98-0.83-1.92-1.52-2.81c-0.69-0.89-1.62-1.62-2.79-2.18
		c-1.17-0.57-2.64-0.85-4.4-0.85c-2.4,0-4.41,0.53-6.02,1.6c-1.61,1.07-2.41,2.44-2.41,4.13c0,1.46,0.54,2.63,1.62,3.52
		c1.08,0.89,2.82,1.62,5.22,2.18l6.92,1.59c4.01,0.93,7,2.35,8.96,4.28c1.97,1.93,2.95,4.44,2.95,7.52c0,2.61-0.75,4.93-2.25,6.96
		c-1.5,2.03-3.59,3.63-6.27,4.78c-2.68,1.15-5.77,1.73-9.29,1.73c-4.88,0-8.86-1.04-11.94-3.13c-3.08-2.09-4.97-5.06-5.67-8.92
		l8.2-1.25c0.51,2.14,1.56,3.75,3.15,4.84c1.59,1.09,3.66,1.63,6.21,1.63c2.78,0,5-0.58,6.67-1.75s2.5-2.59,2.5-4.27
		c0-1.36-0.51-2.51-1.52-3.43c-1.01-0.93-2.56-1.63-4.64-2.1l-7.38-1.62c-4.07-0.93-7.07-2.4-9.01-4.43
		c-1.94-2.02-2.91-4.59-2.91-7.69c0-2.57,0.72-4.82,2.16-6.75c1.44-1.93,3.42-3.44,5.96-4.53c2.53-1.09,5.44-1.63,8.71-1.63
		c4.71,0,8.42,1.02,11.12,3.05C323.8,91.95,325.59,94.66,326.46,98.07z"/>
	<path class="st2" d="M340.9,80.71c-1.47,0-2.74-0.5-3.79-1.49c-1.05-0.99-1.57-2.18-1.57-3.56c0-1.4,0.52-2.6,1.57-3.59
		c1.05-0.99,2.31-1.49,3.79-1.49s2.74,0.5,3.79,1.49c1.05,0.99,1.57,2.19,1.57,3.59c0,1.38-0.52,2.57-1.57,3.56
		C343.64,80.21,342.37,80.71,340.9,80.71z M336.62,131.01V87.43h8.48v43.58H336.62z"/>
	<path class="st2" d="M389.16,98.07l-7.69,1.36c-0.32-0.98-0.83-1.92-1.52-2.81c-0.69-0.89-1.62-1.62-2.79-2.18
		c-1.17-0.57-2.64-0.85-4.4-0.85c-2.4,0-4.41,0.53-6.02,1.6c-1.61,1.07-2.41,2.44-2.41,4.13c0,1.46,0.54,2.63,1.62,3.52
		c1.08,0.89,2.82,1.62,5.22,2.18l6.92,1.59c4.01,0.93,7,2.35,8.96,4.28c1.97,1.93,2.95,4.44,2.95,7.52c0,2.61-0.75,4.93-2.26,6.96
		c-1.5,2.03-3.59,3.63-6.27,4.78c-2.68,1.15-5.77,1.73-9.29,1.73c-4.88,0-8.86-1.04-11.94-3.13c-3.08-2.09-4.97-5.06-5.67-8.92
		l8.2-1.25c0.51,2.14,1.56,3.75,3.15,4.84c1.59,1.09,3.66,1.63,6.21,1.63c2.78,0,5-0.58,6.67-1.75s2.5-2.59,2.5-4.27
		c0-1.36-0.51-2.51-1.52-3.43c-1.01-0.93-2.56-1.63-4.64-2.1l-7.38-1.62c-4.07-0.93-7.07-2.4-9.01-4.43
		c-1.94-2.02-2.91-4.59-2.91-7.69c0-2.57,0.72-4.82,2.16-6.75s3.42-3.44,5.96-4.53c2.53-1.09,5.44-1.63,8.71-1.63
		c4.71,0,8.42,1.02,11.12,3.05C386.5,91.95,388.29,94.66,389.16,98.07z"/>
	<path class="st2" d="M419.66,87.43v6.81h-23.8v-6.81H419.66z M402.24,76.99h8.48v41.22c0,1.65,0.24,2.88,0.74,3.7
		c0.49,0.82,1.13,1.38,1.92,1.67c0.78,0.29,1.64,0.44,2.57,0.44c0.68,0,1.28-0.05,1.79-0.14c0.51-0.09,0.91-0.17,1.19-0.23
		l1.53,7.01c-0.49,0.19-1.19,0.38-2.1,0.58c-0.91,0.2-2.04,0.31-3.4,0.33c-2.23,0.04-4.31-0.36-6.24-1.19
		c-1.93-0.83-3.49-2.12-4.68-3.86c-1.19-1.74-1.79-3.92-1.79-6.55V76.99z"/>
	<path class="st2" d="M441.7,131.97c-2.76,0-5.26-0.52-7.49-1.55c-2.23-1.03-4-2.53-5.29-4.5c-1.3-1.97-1.94-4.38-1.94-7.23
		c0-2.46,0.47-4.48,1.42-6.07c0.94-1.59,2.22-2.85,3.83-3.77c1.61-0.93,3.4-1.63,5.39-2.1c1.99-0.47,4.01-0.83,6.07-1.08
		c2.61-0.3,4.73-0.55,6.35-0.75c1.63-0.2,2.81-0.53,3.55-0.98c0.74-0.45,1.11-1.19,1.11-2.21v-0.2c0-2.48-0.69-4.4-2.08-5.76
		c-1.39-1.36-3.46-2.04-6.2-2.04c-2.86,0-5.1,0.63-6.74,1.89c-1.64,1.26-2.77,2.65-3.39,4.18l-7.97-1.82
		c0.95-2.65,2.33-4.79,4.16-6.43c1.82-1.64,3.93-2.83,6.31-3.57c2.38-0.75,4.89-1.12,7.52-1.12c1.74,0,3.59,0.2,5.55,0.61
		c1.96,0.41,3.79,1.15,5.5,2.23c1.71,1.08,3.12,2.61,4.21,4.61c1.1,2,1.65,4.58,1.65,7.76v28.94h-8.28v-5.96h-0.34
		c-0.55,1.1-1.37,2.17-2.47,3.23c-1.1,1.06-2.51,1.94-4.23,2.64C446.16,131.62,444.1,131.97,441.7,131.97z M443.54,125.16
		c2.34,0,4.36-0.46,6.03-1.39c1.67-0.93,2.95-2.14,3.83-3.65c0.88-1.5,1.32-3.12,1.32-4.84v-5.62c-0.3,0.3-0.88,0.58-1.74,0.84
		c-0.86,0.26-1.84,0.47-2.94,0.65s-2.17,0.34-3.21,0.48c-1.04,0.14-1.91,0.26-2.61,0.35c-1.65,0.21-3.14,0.56-4.5,1.05
		c-1.35,0.49-2.43,1.2-3.23,2.11c-0.8,0.92-1.2,2.13-1.2,3.65c0,2.1,0.77,3.68,2.33,4.75C439.16,124.63,441.14,125.16,443.54,125.16
		z"/>
	<path class="st2" d="M482.98,105.13v25.87h-8.48V87.43h8.14v7.09h0.54c1-2.31,2.58-4.16,4.72-5.56c2.15-1.4,4.86-2.1,8.13-2.1
		c2.97,0,5.57,0.62,7.8,1.86c2.23,1.24,3.96,3.08,5.19,5.52c1.23,2.44,1.84,5.46,1.84,9.05v27.72h-8.48v-26.7
		c0-3.16-0.82-5.63-2.47-7.42c-1.64-1.79-3.91-2.68-6.78-2.68c-1.97,0-3.71,0.43-5.23,1.28c-1.52,0.85-2.72,2.09-3.6,3.73
		C483.42,100.85,482.98,102.83,482.98,105.13z"/>
	<path class="st2" d="M542.56,87.43v6.81h-23.8v-6.81H542.56z M525.14,76.99h8.48v41.22c0,1.65,0.24,2.88,0.74,3.7
		c0.49,0.82,1.13,1.38,1.92,1.67c0.78,0.29,1.64,0.44,2.57,0.44c0.68,0,1.28-0.05,1.79-0.14c0.51-0.09,0.91-0.17,1.19-0.23
		l1.53,7.01c-0.49,0.19-1.19,0.38-2.1,0.58c-0.91,0.2-2.04,0.31-3.4,0.33c-2.23,0.04-4.31-0.36-6.24-1.19
		c-1.93-0.83-3.49-2.12-4.68-3.86c-1.19-1.74-1.79-3.92-1.79-6.55V76.99z"/>
	
		<linearGradient id="SVGID_00000156561263548917111630000009506553408278128019_" gradientUnits="userSpaceOnUse" x1="-30.6734" y1="67.9541" x2="304.7862" y2="67.9541">
		<stop  offset="5.327789e-09" style="stop-color:#CEB0F4"/>
		<stop  offset="0.9078" style="stop-color:#FAD9BD"/>
		<stop  offset="1" style="stop-color:#FFDDB7"/>
	</linearGradient>
	<path style="fill:url(#SVGID_00000156561263548917111630000009506553408278128019_);" d="M194.28,4.15l-11.69,33.77h-49.86
		L121.07,4.15h-1.39h-19.05h-1.39L87.55,37.92H37.69L26.03,4.15H5.59l45.92,127.61h22.24l36.4-101.14l36.4,101.14h22.24L214.71,4.15
		H194.28z M63.1,108.58h-1L43.29,54.12h38.65L63.1,108.58z M158.14,108.58h-1l-18.81-54.46h38.65L158.14,108.58z"/>
</g>
</svg>
