<?xml version="1.0" encoding="utf-8"?>
<!-- Generator: Adobe Illustrator 27.2.0, SVG Export Plug-In . SVG Version: 6.00 Build 0)  -->
<svg version="1.1" id="Слой_1" xmlns="http://www.w3.org/2000/svg" xmlns:xlink="http://www.w3.org/1999/xlink" x="0px" y="0px"
	 viewBox="0 0 1080 1080" style="enable-background:new 0 0 1080 1080;" xml:space="preserve">
<style type="text/css">
	.st0{fill:url(#SVGID_1_);}
</style>
<linearGradient id="SVGID_1_" gradientUnits="userSpaceOnUse" x1="61.1377" y1="781.3536" x2="817.4075" y2="403.3424" gradientTransform="matrix(1 0 0 -1 0 1082)">
	<stop  offset="5.327789e-09" style="stop-color:#CEB0F4"/>
	<stop  offset="0.9078" style="stop-color:#FAD9BD"/>
	<stop  offset="1" style="stop-color:#FFDDB7"/>
</linearGradient>
<path class="st0" d="M1077.7,537.7c-74.24,0-142.49-13.84-207.51-41.5c-65.02-28.59-122.66-67.33-170.63-115.75
	c-47.96-47.96-87.16-105.6-115.75-170.63C556.14,144.79,542.3,76.55,542.3,2.3c0-1.39-0.92-2.3-2.3-2.3c-1.38,0-2.3,0.92-2.3,2.3
	c0,73.78-14.29,142.49-42.88,207.51c-27.67,65.02-65.95,122.66-114.37,170.63c-47.96,47.96-105.6,87.16-170.63,115.75
	C144.8,523.86,76.55,537.7,2.3,537.7c-1.39,0-2.3,0.92-2.3,2.3c0,1.38,0.92,2.3,2.3,2.3c73.78,0,142.5,14.29,207.51,42.88
	c65.02,27.67,122.67,65.95,170.63,114.37c47.96,47.96,86.69,105.6,114.37,170.63c28.59,65.02,42.88,133.27,42.88,207.51
	c0,1.39,0.93,2.3,2.3,2.3c1.39,0,2.3-0.92,2.3-2.3c0-74.24,13.84-142.5,41.5-207.51c28.59-65.02,67.33-122.67,115.75-170.63
	c47.96-47.96,105.6-86.69,170.63-114.37c65.02-28.59,133.27-42.88,207.51-42.88c1.39,0,2.3-0.93,2.3-2.3
	C1080,538.61,1079.08,537.7,1077.7,537.7z"/>
</svg>
